<svg height="300px" width="300px" fill="#000000" xmlns:dc="http://purl.org/dc/elements/1.1/" xmlns:cc="http://creativecommons.org/ns#" xmlns:rdf="http://www.w3.org/1999/02/22-rdf-syntax-ns#" xmlns:svg="http://www.w3.org/2000/svg" xmlns="http://www.w3.org/2000/svg" xmlns:sodipodi="http://sodipodi.sourceforge.net/DTD/sodipodi-0.dtd" xmlns:inkscape="http://www.inkscape.org/namespaces/inkscape" viewBox="0 0 26.458333 26.458334" version="1.1" x="0px" y="0px"><g transform="translate(0,-270.54165)"><path style="color:#000000;font-style:normal;font-variant:normal;font-weight:normal;font-stretch:normal;font-size:medium;line-height:normal;font-family:sans-serif;font-variant-ligatures:normal;font-variant-position:normal;font-variant-caps:normal;font-variant-numeric:normal;font-variant-alternates:normal;font-feature-settings:normal;text-indent:0;text-align:start;text-decoration:none;text-decoration-line:none;text-decoration-style:solid;text-decoration-color:#000000;letter-spacing:normal;word-spacing:normal;text-transform:none;writing-mode:lr-tb;direction:ltr;text-orientation:mixed;dominant-baseline:auto;baseline-shift:baseline;text-anchor:start;white-space:normal;shape-padding:0;clip-rule:nonzero;display:inline;overflow:visible;visibility:visible;opacity:1;isolation:auto;mix-blend-mode:normal;color-interpolation:sRGB;color-interpolation-filters:linearRGB;solid-color:#000000;solid-opacity:1;vector-effect:none;fill:#000000;fill-opacity:1;fill-rule:nonzero;stroke:none;stroke-width:1.05833328;stroke-linecap:round;stroke-linejoin:round;stroke-miterlimit:4;stroke-dasharray:none;stroke-dashoffset:0;stroke-opacity:1;color-rendering:auto;image-rendering:auto;shape-rendering:auto;text-rendering:auto;enable-background:accumulate" d="m 7.9115269,272.12915 c -0.2903706,3e-5 -0.525994,0.23597 -0.5268736,0.5276 v 2.64063 H 2.1143739 c -0.2909722,3e-5 -0.5268445,0.23693 -0.5268736,0.52917 v 19.05025 c -2.552e-4,0.29243 0.2357004,0.52965 0.5268736,0.52968 l 10.5379861,0.006 c 0.291173,2.6e-4 0.527359,-0.23673 0.527388,-0.52916 v -22.22625 c -8.69e-4,-0.29183 -0.236817,-0.52786 -0.527388,-0.5276 z m 0.5268736,1.05676 h 3.6870855 v 1.0392 H 8.4384005 Z m 11.0159795,1.26038 c -0.05272,-0.002 -0.105446,0.004 -0.156415,0.0176 l -5.597518,1.50635 c -0.281463,0.0754 -0.448563,0.36595 -0.37303,0.64853 l 4.909597,18.40121 c 0.07536,0.28221 0.364185,0.44969 0.645215,0.37412 l 5.598032,-1.50634 c 0.280998,-0.0757 0.447754,-0.36576 0.372516,-0.64802 l -4.909598,-18.40121 c -0.05966,-0.22425 -0.257853,-0.38328 -0.488799,-0.39221 z m -11.0159795,0.83714 h 3.6870855 v 1.05884 H 8.4384005 Z m 10.6233975,0.34003 0.204266,0.76583 -4.579272,1.2335 -0.204781,-0.76687 z M 2.6412475,276.3557 h 4.7434058 v 0.79323 H 2.6412475 Z m 5.797153,1.04489 h 3.6870855 v 12.74013 H 8.4384005 Z m 11.1008765,0.0119 2.863332,10.73459 -4.579273,1.23195 -2.863846,-10.7346 z m -16.8980295,0.79475 h 4.7434058 v 11.11338 H 2.6412475 Z m 1.0542617,1.05884 c -0.2909722,3e-5 -0.5268445,0.23693 -0.5268736,0.52916 v 2.64632 c 2.91e-5,0.29223 0.2359014,0.52912 0.5268736,0.52915 h 2.6348824 c 0.2909723,-3e-5 0.5268446,-0.23692 0.5268736,-0.52915 v -2.64632 c -2.9e-5,-0.29223 -0.2359013,-0.52913 -0.5268736,-0.52916 z m 0.5268736,1.05832 H 5.803518 v 1.58799 H 4.2223828 Z m 18.4529242,8.84379 0.272698,1.02214 -4.579272,1.2335 -0.273213,-1.0237 z m -20.0340595,1.21076 h 4.7434058 v 1.05884 H 2.6412475 Z m 5.797153,0.81854 h 3.6870855 v 1.05831 H 8.4384005 Z m 14.7823025,0.0155 0.47748,1.78953 -4.579273,1.23247 -0.477479,-1.79005 z m -20.5794555,1.28104 h 4.7434058 v 1.85362 H 2.6412475 Z m 5.797153,0.82061 h 3.6870855 v 1.03869 H 8.4384005 Z"/></g></svg>