<svg height="300px" width="300px" fill="#000000" xmlns="http://www.w3.org/2000/svg" xmlns:xlink="http://www.w3.org/1999/xlink" version="1.1" x="0px" y="0px" viewBox="0 0 64 64" style="enable-background:new 0 0 64 64;" xml:space="preserve"><g><path d="M62,5h-3V2c0-0.552-0.447-1-1-1H35.236c-1.144,0-2.172,0.635-2.684,1.658L32,3.764l-0.553-1.106   C30.936,1.635,29.907,1,28.764,1H6C5.447,1,5,1.448,5,2v3H2C1.447,5,1,5.448,1,6v52c0,0.552,0.447,1,1,1h24v1c0,1.654,1.346,3,3,3   h6c1.654,0,3-1.346,3-3v-1h24c0.553,0,1-0.448,1-1V6C63,5.448,62.553,5,62,5z M33.618,53l0.724-1.447   C34.513,51.212,34.855,51,35.236,51H57v2H33.618z M7,53v-2h21.764c0.381,0,0.724,0.212,0.895,0.553L30.382,53H7z M34.342,3.553   C34.513,3.212,34.855,3,35.236,3H57v46H35.236c-0.873,0-1.676,0.372-2.236,1.002V6.236L34.342,3.553z M28.764,3   c0.381,0,0.724,0.212,0.895,0.553L31,6.236v43.765C30.44,49.372,29.636,49,28.764,49H7V3H28.764z M3,57V7h2v47c0,0.552,0.447,1,1,1   h20v2H3z M35,61h-6c-0.552,0-1-0.449-1-1v-5h8v5C36,60.551,35.552,61,35,61z M61,57H38v-2h20c0.553,0,1-0.448,1-1V7h2V57z"/><path d="M10,11h18c0.553,0,1-0.448,1-1V6c0-0.552-0.447-1-1-1H10C9.447,5,9,5.448,9,6v4C9,10.552,9.447,11,10,11z M11,7h16v2H11V7z   "/><rect x="9" y="13" width="20" height="2"/><rect x="9" y="17" width="14" height="2"/><rect x="9" y="21" width="20" height="2"/><rect x="9" y="25" width="14" height="2"/><rect x="9" y="29" width="20" height="2"/><rect x="9" y="33" width="14" height="2"/><rect x="35" y="25" width="20" height="2"/><rect x="35" y="29" width="14" height="2"/><rect x="35" y="5" width="20" height="2"/><rect x="35" y="9" width="14" height="2"/><rect x="35" y="33" width="20" height="2"/><rect x="35" y="37" width="14" height="2"/><rect x="35" y="41" width="20" height="2"/><rect x="35" y="45" width="14" height="2"/></g></svg>