<svg height="300px" width="300px" fill="#000000" xmlns="http://www.w3.org/2000/svg" xmlns:xlink="http://www.w3.org/1999/xlink" version="1.1" x="0px" y="0px" viewBox="0 0 100 100" style="enable-background:new 0 0 100 100;" xml:space="preserve"><path d="M13.1863403,46.0409546c-0.0007935,8.9764404,0.0010376,17.9528198-0.006897,26.9291992  c-0.0007935,0.895752,0.128418,1.7196045,0.8338623,2.361084c0.6807861,0.6190186,1.5061035,0.6403198,2.3568726,0.6401367  c22.0893555-0.0047607,44.1787109-0.003418,66.2681274-0.0042114c2.2553101-0.000061,3.1366577-0.8815308,3.137146-3.1483154  c0.0021973-11.1393433,0.0009766-22.2786255,0.0009766-33.4179688c0-0.2894897,0-0.5789185,0-0.9137573  c-24.2302246,0-48.3597412,0-72.5900879,0C13.1863403,41.0689697,13.1865234,43.5549927,13.1863403,46.0409546z"/><path d="M13.2531738,33.5704956c19.9107056,0,39.7485352,0,59.703064,0c0-2.2295532,0.0032349-4.3613892-0.0009155-6.4932251  c-0.0041504-2.1337891-0.9304199-3.0700684-3.0623779-3.0704346c-17.9263306-0.0031128-35.8526611-0.0031128-53.7789917-0.0007935  c-1.9782715,0.0002441-2.9155273,0.9421387-2.9268188,2.9422607c-0.0110474,1.9736938-0.0026245,3.9475708,0.0033569,5.9213867  C13.1911621,33.0992432,13.2305908,33.3286743,13.2531738,33.5704956z"/><path d="M80.7316284,33.5997925c2.4914551,0.0248413,4.5785522-2.0046387,4.5978394-4.4710083  c0.0199585-2.5508423-1.9971313-4.6262207-4.5117798-4.6422729c-2.4970703-0.0158691-4.5700684,2.0001831-4.6015015,4.4750977  C76.1838989,31.5028687,78.2006836,33.5744629,80.7316284,33.5997925z"/><path d="M86.2704468,15.8525391c-24.5182495-0.0042114-49.036499-0.0059814-73.5547485-0.0026855  c-4.7142944,0.0006104-7.7401733,3.0512085-7.7428589,7.8366699C4.9629517,41.2216797,4.9683228,58.7568359,4.9760742,76.2919312  c0.0003052,0.6427002,0.0153809,1.3007202,0.1434326,1.9255371c0.7288818,3.555603,3.5964966,5.8978882,7.2319336,5.9005737  c12.3338623,0.0089111,24.6677246,0.003418,37.0015869,0.0045166c1.3438721,0.0011597,2.6877441,0.0012817,4.0316162,0.0011597  c11.109314-0.0009766,22.2186279,0.0092773,33.3278809-0.0098877c3.2650757-0.0056152,6.0057373-2.027832,6.8963013-5.137146  c0.289917-1.012207,0.3651123-2.1199951,0.3676147-3.1844482c0.0254517-10.8901978,0.0159302-21.7803955,0.015625-32.6705933  c-0.0002441-6.4603271,0.0238037-12.9207153-0.0106201-19.3808594  C93.9556885,18.9136963,90.9358521,15.8533325,86.2704468,15.8525391z M89.7831421,43.9525757  c0.0003052,9.5720825,0.0089111,19.1442261-0.0140991,28.7163086c-0.0022583,0.9356689-0.0703735,1.9093628-0.3328247,2.7990723  c-0.8063965,2.7329712-3.2879028,4.510437-6.2442017,4.5153809c-10.0587158,0.0168457-20.1174927,0.0078125-30.1762695,0.008667  c-1.2167969,0.0001221-2.4335938,0-3.6503906-0.0009766c-11.1674805-0.0010376-22.335022,0.0038452-33.5025635-0.0040283  c-3.291626-0.0023193-5.8880615-2.0610962-6.5479736-5.1864014c-0.1160278-0.5491333-0.1296387-1.1275635-0.1298828-1.6924438  C9.1778564,57.6953735,9.1730347,42.2825317,9.1820068,26.869751c0.0023804-4.2062378,2.7421265-6.8876343,7.0106201-6.8881836  c22.199707-0.0028687,44.3994141-0.0013428,66.5990601,0.0023804c4.2243042,0.0006714,6.9585571,2.6906738,6.9818115,6.9335327  C89.8046875,32.5956421,89.782959,38.2741699,89.7831421,43.9525757z"/></svg>