<svg height="300px" width="300px" fill="#000000" xmlns="http://www.w3.org/2000/svg" xmlns:xlink="http://www.w3.org/1999/xlink" version="1.1" x="0px" y="0px" viewBox="0 0 3968.5 3968.5" enable-background="new 0 0 3968.5 3968.5" xml:space="preserve"><g><path d="M2659.9,1011.6c35.9,26.6,70.1,56,102.3,88.1c69.7,69.7,126.4,148.8,169,234.6l354.6-354.6c10.4-10.4,26.2-13,39.4-6.6   c13.4,6.5,27.5,11.6,41.9,14.9c14.4,3.4,29.2,5.1,43.9,5.1c51.7,0,100.7-20.5,138-57.8c37.1-37.1,57.5-86.3,57.6-138.6   c0.1-52.3-20.2-101.5-57.2-138.5c-36.9-36.8-86-57-138.1-57c-2.7,0-5.5,0-8.3,0.2c-9.6,0.4-18.9-3.3-25.7-10   c-6.8-6.8-10.4-16.1-10-25.7c2.3-55.5-18.1-107.6-57.2-146.8c-36.9-36.9-85.8-57.2-137.8-57.2c-52.4,0-101.7,20.5-138.9,57.8   c-29.5,29.5-48.6,66.5-55.2,106.8c-6.5,39.8-0.5,80.3,17.4,117c6.5,13.2,3.8,29-6.6,39.4L2659.9,1011.6z"/><path d="M3549.2,3033.1c-29.5-29.5-66.5-48.6-106.8-55.2c-39.8-6.5-80.3-0.4-117,17.6c-13.2,6.5-29,3.8-39.4-6.6l-385.6-385.6   c-34.7,30.2-80.1,48.5-129.6,48.5h-79.4c-63.3,0-114.8,51.5-114.8,114.7v107l85.6,85.6c0,0,0-0.1,0-0.1l326.8,326.8   c10.4,10.4,13,26.2,6.6,39.4c-13.1,26.7-20,56.4-20,85.8c0,51.7,20.5,100.7,57.8,138c37,37.1,86.2,57.5,138.4,57.6   c52.3,0.1,101.5-20.2,138.5-57.2c36.9-36.9,57.2-86,57.2-138.3c0-2.8,0-5.5-0.2-8.3c0-0.5,0-1,0-1.4c0-9.1,3.6-17.8,10-24.3   c6.8-6.8,16.1-10.4,25.7-10c54.7,2.3,108.1-18.6,146.5-57.2c36.9-36.9,57.2-85.9,57.2-137.9   C3606.9,3119.6,3586.4,3070.3,3549.2,3033.1z"/><path d="M2770.8,2568.9c63.3,0,114.7-51.5,114.7-114.7c0-1.1,0.1-2.1,0.1-3.2l55.2-721.2c-0.4-215.8-84.7-418.7-237.3-571.4   c-153-153-356.5-237.3-572.9-237.3h-292.7c-216.4,0-419.9,84.3-572.9,237.3c-152.6,152.7-236.9,355.5-237.3,571.4l55.2,721.2   c0.1,1.1,0.1,2.1,0.1,3.2c0,63.2,51.5,114.7,114.7,114.7h79.4c109,0,197.8,88.7,197.8,197.7v297.6c0,63.3,51.5,114.7,114.7,114.7   h165.2v-230.3c0-22.9,18.6-41.5,41.5-41.5c22.9,0,41.5,18.6,41.5,41.5V3179h292.9v-230.3c0-22.9,18.6-41.5,41.5-41.5   c22.9,0,41.5,18.6,41.5,41.5V3179h165.2c63.3,0,114.7-51.5,114.7-114.7v-297.6c0-109,88.7-197.7,197.8-197.7H2770.8z    M1602.7,2257.7c-173.6,0-314.9-141.2-314.9-314.8c0-173.6,141.3-314.9,314.9-314.9s314.8,141.2,314.8,314.9   C1917.5,2116.4,1776.3,2257.7,1602.7,2257.7z M2065.9,2552c-15.6,19.2-38.8,30.2-63.6,30.2h-36.2c-24.8,0-47.9-11-63.6-30.2   c-15.6-19.2-21.7-44.1-16.6-68.4l17.7-84.6c7.9-37.8,41.6-65.2,80.2-65.2h0.9c38.6,0,72.3,27.4,80.2,65.2l17.7,84.6   C2087.6,2507.9,2081.5,2532.8,2065.9,2552z M2365.8,2257.7c-173.6,0-314.8-141.2-314.8-314.8c0-173.6,141.2-314.9,314.8-314.9   s314.9,141.2,314.9,314.9C2680.7,2116.4,2539.4,2257.7,2365.8,2257.7z"/><path d="M1277.1,2651.9h-79.4c-49.5,0-94.8-18.3-129.5-48.5L682.7,2989c-10.4,10.4-26.2,13-39.4,6.6c-26.7-13.1-56.4-20-85.8-20   c-51.7,0-100.7,20.5-138,57.8c-37.1,37-57.5,86.1-57.6,138.4s20.2,101.5,57.2,138.5c36.9,36.9,86,57.2,138.3,57.2   c2.8,0,5.5-0.1,8.3-0.2c0.5,0,1,0,1.4,0c9.1,0,17.8,3.6,24.3,10.1c6.8,6.8,10.4,16.1,10,25.7c-2.2,54.7,18.6,108.1,57.2,146.5   c36.9,36.9,85.9,57.2,137.9,57.2c52.4,0,101.7-20.5,138.9-57.7c29.5-29.5,48.6-66.4,55.2-106.8c6.5-39.8,0.4-80.3-17.6-117   c-6.5-13.2-3.8-29,6.6-39.4l333.8-333.8l78.5-78.5v-107C1391.9,2703.3,1340.4,2651.9,1277.1,2651.9z"/><path d="M526.2,990.5c39.8,6.5,80.3,0.5,117-17.4c13.2-6.5,29-3.8,39.4,6.5l354.7,354.7c42.6-85.8,99.3-165,169-234.6   c32.2-32.2,66.4-61.6,102.3-88.1L979.7,682.7c-10.4-10.4-13-26.2-6.5-39.4c6.5-13.4,11.5-27.5,14.9-41.9   c3.4-14.4,5.1-29.2,5.1-43.9c0-51.7-20.5-100.7-57.8-138c-37.1-37.1-86.3-57.5-138.6-57.6c-52.3-0.1-101.5,20.2-138.5,57.2   c-36.8,36.9-57,86-57,138.1c0,2.7,0.1,5.5,0.2,8.3c0.4,9.6-3.2,18.9-10,25.7c-6.8,6.8-16.1,10.4-25.7,10   c-55.5-2.3-107.6,18.1-146.8,57.2c-36.9,36.9-57.1,85.8-57.1,137.8c0,52.4,20.5,101.7,57.7,138.9   C448.9,964.8,485.8,983.9,526.2,990.5z"/></g></svg>